<svg xmlns="http://www.w3.org/2000/svg" width="150" height="50" viewBox="0 0 150 50">
  <g transform="translate(20, 15)">
    <!-- Google G -->
    <path d="M20.7,10.4c0-0.8-0.1-1.5-0.2-2.3H10.5v4.3h5.7c-0.2,1.3-1,2.5-2.1,3.2v2.7h3.4C19.7,16.3,20.7,13.6,20.7,10.4z" fill="#4285F4"/>
    <path d="M10.5,21c2.9,0,5.3-0.9,7-2.6l-3.4-2.7c-0.9,0.6-2.1,1-3.6,1c-2.8,0-5.1-1.9-6-4.4H1v2.8C2.7,18.8,6.3,21,10.5,21z" fill="#34A853"/>
    <path d="M4.5,12.3c-0.2-0.7-0.4-1.4-0.4-2.2s0.1-1.5,0.4-2.2V5.2H1C0.4,6.7,0,8.3,0,10.1s0.4,3.4,1,4.9L4.5,12.3z" fill="#FBBC05"/>
    <path d="M10.5,3.6c1.6,0,3,0.5,4.1,1.6L18,1.8C16.1,0.1,13.5-0.5,10.5,0.5C6.3,0.5,2.7,2.7,1,6.4l3.5,2.7C5.4,5.5,7.7,3.6,10.5,3.6z" fill="#EA4335"/>
    
    <!-- "oogle" text -->
    <path d="M33.9,13.6c0,4.1-3.2,7.2-7.2,7.2s-7.2-3.1-7.2-7.2c0-4.1,3.2-7.2,7.2-7.2S33.9,9.5,33.9,13.6z M30.4,13.6c0-2.6-1.9-4.3-3.7-4.3c-1.8,0-3.7,1.7-3.7,4.3s1.9,4.3,3.7,4.3C28.5,17.9,30.4,16.2,30.4,13.6z" fill="#EA4335"/>
    <path d="M47.7,13.6c0,4.1-3.2,7.2-7.2,7.2s-7.2-3.1-7.2-7.2c0-4.1,3.2-7.2,7.2-7.2S47.7,9.5,47.7,13.6z M44.2,13.6c0-2.6-1.9-4.3-3.7-4.3c-1.8,0-3.7,1.7-3.7,4.3s1.9,4.3,3.7,4.3C42.3,17.9,44.2,16.2,44.2,13.6z" fill="#FBBC05"/>
    <path d="M61,6.8v13c0,5.4-3.2,7.5-6.9,7.5c-3.5,0-5.6-2.4-6.4-4.3l2.8-1.2c0.5,1.2,1.7,2.5,3.6,2.5c2.4,0,3.8-1.5,3.8-4.1v-1h-0.1c-0.7,0.9-2,1.6-3.7,1.6c-3.5,0-6.7-3.1-6.7-7c0-3.9,3.2-7.1,6.7-7.1c1.7,0,3,0.8,3.7,1.6h0.1V6.8H61z M57.7,13.7c0-2.4-1.6-4.2-3.7-4.2c-2.1,0-3.8,1.8-3.8,4.2c0,2.4,1.8,4.2,3.8,4.2C56.1,17.9,57.7,16.1,57.7,13.7z" fill="#4285F4"/>
    <path d="M66.2,0.8v19.8h-3.3V0.8H66.2z" fill="#34A853"/>
    <path d="M77.2,16.5l2.4,1.6c-0.8,1.2-2.7,3.2-6.1,3.2c-4.1,0-7.2-3.2-7.2-7.2c0-4.3,3.1-7.2,6.9-7.2c3.8,0,5.6,3,6.2,4.6l0.3,0.8l-9.7,4c0.7,1.4,1.9,2.2,3.5,2.2C75,18.4,76.3,17.6,77.2,16.5z M70.5,14l6.5-2.7c-0.4-0.9-1.4-1.6-2.7-1.6C72.5,9.7,70.4,11.4,70.5,14z" fill="#EA4335"/>
  </g>
</svg> 