<svg xmlns="http://www.w3.org/2000/svg" width="150" height="50" viewBox="0 0 150 50">
  <rect x="20" y="15" width="10" height="10" fill="#F25022"/>
  <rect x="31" y="15" width="10" height="10" fill="#7FBA00"/>
  <rect x="20" y="26" width="10" height="10" fill="#00A4EF"/>
  <rect x="31" y="26" width="10" height="10" fill="#FFB900"/>
  <path d="M50,18h3.3v9.2h0.1c0.3-0.5,0.7-1,1.2-1.3c0.5-0.3,1.1-0.5,1.6-0.5c1.6,0,4.1,1,4.1,5.1v7.1h-3.3v-6.8c0-1.9-0.7-3.5-2.5-3.5c-1.3,0-2.2,0.9-2.6,2c-0.1,0.3-0.1,0.6-0.1,1V38H50V18z" fill="#737373"/>
  <path d="M64.9,23.9h3.3v14h-3.3V23.9z M66.6,18c1.1,0,1.8,0.7,1.8,1.7c0,1-0.7,1.7-1.8,1.7c-1,0-1.7-0.7-1.7-1.7C64.9,18.7,65.6,18,66.6,18z" fill="#737373"/>
  <path d="M70.6,32.2c0,2.6,1.7,3.7,3.6,3.7c1.4,0,2.2-0.2,2.9-0.5l0.3,2.4c-0.9,0.4-2.3,0.7-3.9,0.7c-3.6,0-5.7-2.4-5.7-5.9c0-3.5,2.1-6.3,5.5-6.3c3.8,0,4.8,3.3,4.8,5.4c0,0.4,0,0.8-0.1,1H70.6z M75.7,29.8c0-1.2-0.5-3.1-2.6-3.1c-1.9,0-2.7,1.8-2.9,3.1H75.7z" fill="#737373"/>
  <path d="M87.9,37.5c-0.9,0.4-2.4,0.7-4.4,0.7c-4.4,0-7.7-2.8-7.7-7.9c0-4.9,3.4-8.3,8.1-8.3c1.7,0,3,0.3,3.7,0.7l-0.5,2.5c-0.7-0.3-1.6-0.6-3.1-0.6c-3.1,0-4.9,2.3-4.9,5.5c0,3.3,2.1,5.4,4.9,5.4c1.3,0,2.3-0.2,3.1-0.6L87.9,37.5z" fill="#737373"/>
  <path d="M90.7,18h3.3v7.9h0.1c0.5-1,1.4-1.7,2.9-1.7c2.1,0,3.6,1.7,3.6,4.4v9.3h-3.3v-9c0-1.3-0.5-2.3-1.7-2.3c-0.9,0-1.5,0.6-1.7,1.3c-0.1,0.2-0.1,0.5-0.1,0.8V38h-3.3V18z" fill="#737373"/>
  <path d="M103.3,30.8c0.1,2.1,1.7,3,3.5,3c1.3,0,2.3-0.2,3.2-0.5l0.4,2.3c-1,0.4-2.4,0.8-4.1,0.8c-3.8,0-6-2.5-6-6.2c0-3.7,2.2-6.6,5.7-6.6c4,0,5,3.5,5,5.7c0,0.5,0,0.8-0.1,1H103.3z M108.3,28.5c0-1-0.4-2.5-2.1-2.5c-1.6,0-2.2,1.4-2.3,2.5H108.3z" fill="#737373"/>
  <path d="M113.8,27.3c0-1.9,0-3.4-0.1-4.9h2.9l0.1,2.9h0.1c0.8-2.1,2.8-3.2,5-3.2c2.1,0,5.4,1.3,5.4,6.5v9.1h-3.3v-8.8c0-2.5-0.9-4.5-3.5-4.5c-1.8,0-3.2,1.3-3.7,2.8c-0.1,0.3-0.2,0.8-0.2,1.3v9.3h-3.3V27.3z" fill="#737373"/>
</svg> 